<svg xmlns="http://www.w3.org/2000/svg" version="1.1" xmlns:xlink="http://www.w3.org/1999/xlink" width="512" height="512" x="0" y="0" viewBox="0 0 512 512" style="enable-background:new 0 0 512 512" xml:space="preserve" class=""><g><path d="M77.3 508a8 8 0 0 0 10.927 2.936l76.363-44.022a8 8 0 0 0 2.935-10.925l-10.164-17.636 2.6-1.464a9.583 9.583 0 0 1 6.492-1.228c7.272 1.019 18.634 4.373 37.459 9.929 18.681 5.515 44.265 13.066 80.7 22.725a61.349 61.349 0 0 0 15.784 2.064c15.032 0 30.55-5.478 46.317-16.377 10.89-7.527 24.3-17.689 41.285-30.555 26.851-20.341 63.622-48.2 110.862-80.857a30.415 30.415 0 0 0-9.032-54.293 22.976 22.976 0 0 0-15.346.9c-5.053 2.088-12.3 4.767-21.463 8.159-17.523 6.482-43.015 15.915-75.769 29.592a20.013 20.013 0 0 0-.9-2.979 18.889 18.889 0 0 0-14.06-11.8c-17.76-3.6-75.886-9.781-172.763-18.368-8.937-.794-19.906 2-29.349 7.484-20.683 12-46.333 26.694-61.5 35.248L91.3 323.719a8 8 0 0 0-10.926-2.936L4.005 364.8a8 8 0 0 0-2.936 10.925zm90.9-192.878c7.885-4.573 15.455-5.782 19.909-5.386 119.934 10.63 159.187 15.716 171 18.11a3.207 3.207 0 0 1 1.966 5.013c-8.634 12.039-15.768 19.733-18.569 21.873-50.829 2.475-101.751 7.032-113.978 10.216a8 8 0 1 0 4.034 15.483c9.828-2.559 58.319-7.209 112.164-9.788 2.367-.107 8.409-.382 25.7-23.476.167-.059.335-.114.5-.184 38.513-16.448 68.078-27.386 87.642-34.624 9.326-3.449 16.691-6.174 22.021-8.376a6.944 6.944 0 0 1 4.894-.286 14.416 14.416 0 0 1 4.279 25.731c-47.528 32.856-84.46 60.836-111.427 81.266-16.827 12.748-30.118 22.817-40.722 30.147-17.572 12.146-33.57 16.074-48.9 12.008-36.216-9.6-61.676-17.117-80.267-22.6-19.533-5.765-31.323-9.246-39.766-10.428a25.754 25.754 0 0 0-16.565 3.13l-2.739 1.543-42.705-74.1c15.235-8.605 40.862-23.294 61.529-35.277zM81.428 338.64l68.241 118.4-62.5 36.03-68.243-118.4zM504 0H167.4a8 8 0 0 0-8 8v209.17a8 8 0 0 0 8 8h125.879l35.491 61.471a8 8 0 0 0 13.855 0l35.49-61.471H504a8 8 0 0 0 8-8V8a8 8 0 0 0-8-8zm-8 209.17H373.5a8 8 0 0 0-6.929 4L335.7 266.641l-30.87-53.471a8 8 0 0 0-6.929-4H175.4V16H496zm-235.146-28.682a67.9 67.9 0 1 0-67.9-67.9 67.981 67.981 0 0 0 67.9 67.9zm0-119.807a51.9 51.9 0 1 1-51.9 51.9 51.963 51.963 0 0 1 51.9-51.9zm-34.521 52.53a8 8 0 0 1 12.943-9.406l11.245 15.473 38.008-31.135a8 8 0 0 1 10.139 12.377L254.1 137.027a8 8 0 0 1-11.541-1.485zm122.842 62.124a8 8 0 0 1 8-8h113.268a8 8 0 0 1 0 16H357.175a8 8 0 0 1-8-8zm0-41.833a8 8 0 0 1 8-8h113.268a8 8 0 0 1 0 16H357.175a8 8 0 0 1-8-8.002zm0-41.834a8 8 0 0 1 8-8h113.268a8 8 0 0 1 0 16H357.175a8 8 0 0 1-8-8zm0-41.834a8 8 0 0 1 8-8h113.268a8 8 0 0 1 0 16H357.175a8 8 0 0 1-8-8z" fill="#f3f0e4" opacity="1" data-original="#000000" class=""></path></g></svg>