<svg width="345" height="241" viewBox="0 0 345 241" fill="none" xmlns="http://www.w3.org/2000/svg">
<path d="M1.46041 115.492C50.0816 70.8229 102.935 32.0947 161.038 0.652625C164.154 -1.02122 168.19 0.71826 169.502 3.67211C169.699 3.77057 169.896 3.83622 170.092 4.00032C177.441 10.1049 183.642 18.507 191.778 23.5285C194.108 24.9726 194.403 27.6967 193.288 29.9613C190.236 36.1972 186.824 43.5819 182.723 50.1788C222.487 42.7613 263.595 40.8906 303.226 33.4403C306.967 32.7511 309.69 34.8188 310.838 37.5101C346.697 45.9121 344.925 92.0906 344.925 122.417C344.925 145.555 346.237 173.912 337.871 195.771C332.261 210.441 306.704 218.45 293.187 221.863C291.941 222.191 290.825 221.929 289.874 221.371C289.677 221.338 289.48 221.338 289.283 221.272C253.884 210.474 218.582 199.315 183.281 188.156C188.563 200.3 191.122 215.069 192.402 227.081C192.599 228.854 191.188 230.429 189.843 231.315C181.969 236.435 172.389 242.113 162.776 240.21C162.383 240.144 162.055 239.914 161.825 239.652C159.856 241.03 157.101 241.391 155.034 240.078C100.31 204.96 49.9503 165.313 1.3292 122.22C-0.606459 120.513 -0.311211 117.133 1.46041 115.492ZM333.606 91.6967C326.979 85.5921 320.385 80.0126 311.921 75.8444C308.837 74.3347 311.199 69.4116 314.348 70.4619C320.221 72.3654 326.225 75.2865 331.441 79.1593C327.996 65.4403 320.811 53.6906 306.507 46.5685H306.474C304.998 46.8967 303.522 47.1921 302.045 47.5203C302.964 61.5675 303.292 75.6147 303.292 89.6619C308.476 93.2393 313.627 96.7511 318.548 100.69C323.731 104.792 329.899 108.599 334.23 113.686C334.427 106.269 334.361 98.8516 333.606 91.6967ZM333.771 116.345C327.111 114.244 321.304 109.354 315.595 105.416C311.199 102.396 307.163 98.9829 303.194 95.4383C303.128 101.609 302.931 107.746 302.734 113.916C313.462 121.596 323.174 130.687 332.983 139.516V139.319C333.311 131.967 333.836 124.156 334.131 116.312C334.033 116.345 333.935 116.411 333.771 116.345ZM332.95 146.934C332.786 146.868 332.622 146.835 332.458 146.704C322.452 138.794 312.019 131.114 302.537 122.482C302.242 130.622 301.849 138.761 301.389 146.868C301.849 146.737 302.373 146.802 302.964 147.098C314.02 153.366 323.108 161.67 331.507 171.188C333.475 173.42 330.227 176.571 328.128 174.372C319.893 165.74 310.575 158.158 301.16 150.839C300.733 158.618 300.241 166.396 299.716 174.175H299.749C308.673 179.524 318.285 185.596 326.093 192.817C333.541 184.612 333.049 161.276 332.95 146.934ZM321.008 196.886C313.364 192.62 306.081 187.172 299.322 181.658C298.699 191.077 298.076 200.497 297.485 209.883C305.654 206.142 313.528 202.105 321.008 196.886ZM154.673 42.6629C152.278 48.0454 149.817 53.3952 147.291 58.7121C154.17 56.6433 161.118 54.8152 168.124 53.2311C168.255 52.8372 168.452 52.4762 168.583 52.0824C164.121 49.4239 159.824 46.6014 155.526 43.5819C155.132 43.3193 154.87 42.9911 154.673 42.6629ZM162.842 24.8413C162.744 24.7101 162.678 24.5788 162.612 24.4475C160.578 29.2721 158.479 34.0967 156.346 38.8885C157.004 38.7125 157.704 38.7825 158.314 39.0854C162.809 41.2188 167.14 43.4834 171.438 45.8793C173.275 42.4003 175.407 38.987 177.638 35.7049C171.897 33.6701 166.91 29.1736 162.842 24.8413ZM183.609 27.4013C179.311 21.3952 173.34 16.3408 168.288 10.8598C166.779 14.667 165.138 18.4085 163.531 22.1829C163.925 22.0188 164.384 22.0516 164.843 22.3798C169.6 25.9244 174.981 29.1736 179.344 33.2762C180.788 31.2413 182.231 29.2721 183.609 27.4013ZM155.46 205.912C155.803 205.817 156.165 205.806 156.513 205.88C156.862 205.954 157.187 206.112 157.461 206.339C163.179 211.029 169.369 215.11 175.932 218.515C179.049 220.123 176.195 224.653 173.078 223.11C167.009 220.123 161.825 216.48 157.133 211.82C159.135 219.106 161.366 226.326 164.023 233.514C164.187 233.974 164.22 234.4 164.253 234.827C169.666 231.02 176.063 228.69 181.706 224.981C180.033 219.336 178.622 213.592 177.113 207.914C173.898 204.173 170.355 200.891 166.32 198.035C162.317 195.213 156.838 193.9 153.426 190.486C152.212 189.272 153.295 187.5 154.804 187.401C159.725 187.139 165.04 191.176 168.911 193.834C170.814 195.147 172.586 196.591 174.292 198.134C172.848 193.473 171.372 188.911 170.519 184.152C163.662 181.986 156.805 179.82 149.916 177.654C151.261 187.204 153.098 196.591 155.46 205.912ZM147.029 220.55C142.057 204.19 138.63 187.4 136.793 170.4C136.3 166.035 139.581 161.604 144.437 163.147C191.68 177.916 239.022 192.456 286.134 207.586C293.975 155.139 293.548 102.101 294.007 49.227C242.073 59.3029 188.629 58.2198 137.613 74.0721C132.364 75.7131 129.181 69.5757 131.314 65.4075C139.023 50.3757 145.88 34.9829 152.245 19.3603C102.344 47.9142 55.1996 80.8988 11.9917 118.971C54.281 156.058 99.9166 189.732 147.029 220.55Z" fill="white"/>
</svg>
