<svg xmlns="http://www.w3.org/2000/svg" version="1.1" xmlns:xlink="http://www.w3.org/1999/xlink" width="512" height="512" x="0" y="0" viewBox="0 0 512 512" style="enable-background:new 0 0 512 512" xml:space="preserve" class=""><g><path fill="#c1e4fa" d="M256 7.5c-63.532 0-121.485 23.854-165.421 63.079C51.354 114.515 17.5 182.468 17.5 246c0 137.243 111.257 248.5 248.5 248.5 63.532 0 131.485-33.854 175.421-73.079C480.646 377.485 504.5 319.532 504.5 256 504.5 118.757 393.243 7.5 256 7.5z" opacity="1" data-original="#c1e4fa" class=""></path><path fill="#fff0af" d="M411.694 144.456c0-29.827-24.18-54.007-54.007-54.007-13.105-26.794-45.449-37.892-72.244-24.787-23.544-18.312-57.476-14.07-75.788 9.474-13.994-2.926-27.847-.138-39.16 6.761-11.47 8.105-18.672 30.156-18.672 41.961-25.716 5.764-46.813 30.15-38.023 75.54 21.795 41.235 87.549 122.346 168.307 131.116 94.255 10.235 151.574-108.089 151.574-108.089 15.905-32.52 4.807-64.865-21.987-77.969z" opacity="1" data-original="#fff0af" class=""></path><path fill="#ffe07d" d="M128.102 187.929c-12.193-27.045 2.882-56.756 28.599-62.52 0-11.805 2.325-35.408 13.795-43.513-12.29 7.495-21.58 19.845-24.759 35.047-28.91 7.342-46.393 36.731-39.051 65.64 1.051 4.14 3.472 9.922 7.114 16.814 10.66.207 17.57-4.22 14.302-11.468z" opacity="1" data-original="#ffe07d"></path><path fill="#91b5f9" d="M27.5 236c0-63.532 23.854-121.485 63.079-165.421C39.604 116.087 7.5 182.29 7.5 256c0 137.243 111.257 248.5 248.5 248.5 73.71 0 139.913-32.104 185.421-83.079C397.485 460.646 339.532 484.5 276 484.5 138.757 484.5 27.5 373.243 27.5 236z" opacity="1" data-original="#91b5f9"></path><circle cx="232.358" cy="180.857" r="15" fill="#fff0af" opacity="1" data-original="#fff0af" class=""></circle><circle cx="363.879" cy="187.929" r="15" fill="#fff0af" opacity="1" data-original="#fff0af" class=""></circle><path fill="#98ca91" d="M213.258 258.486c-22.605 10.094-40.203 24.717-40.203 43.045 0 46.031 107.601 88.896 106.228 104.561s6.291 30.555 21.644 33.955c15.353 3.399 30.555-6.291 33.955-21.644 11.119 11.119 29.147 11.119 40.266 0s11.119-29.147 0-40.266a28.33 28.33 0 0 0 15.193-8.964l-41.209-69.291z" opacity="1" data-original="#98ca91"></path><path fill="#68b181" d="M396.794 344.184c-3.398-15.353-67.459-83.639-90.119-97.508-13.637-8.347-59.251-3.445-93.417 11.81 1.185 7.898 5.774 15.469 12.578 21.176 12.048 10.106 28.576 26.658 34.792 52.488s47.287 26.23 53.503.4c1.019-4.233-2.605-8.612-1.097-12.359a27.514 27.514 0 0 0 5.47 1.95c25.83 6.216 42.385 22.748 52.491 34.796 5.265 6.276 12.116 10.662 19.346 12.236 5.803-6.589 8.495-15.76 6.453-24.989z" opacity="1" data-original="#68b181"></path><circle cx="311.675" cy="355.513" r="15" fill="#68b181" opacity="1" data-original="#68b181"></circle><path fill="#98ca91" d="M434.01 311.324c15.725 0 28.473-12.748 28.473-28.473s-12.748-28.473-28.473-28.473c8.452-13.26 4.555-30.862-8.705-39.314s-29.208-3.343-39.314 8.705-26.658 28.576-52.488 34.792-25.83 42.363 0 48.579 42.385 22.748 52.491 34.796 26.055 17.155 39.315 8.701c13.259-8.452 17.155-26.054 8.701-39.313z" opacity="1" data-original="#98ca91"></path><path fill="#c2e4a1" d="M244.428 430.195c0 15.725-12.748 28.473-28.473 28.473s-28.473-12.748-28.473-28.473c-13.26 8.452-30.862 4.555-39.314-8.705s-3.343-29.208 8.705-39.314 28.576-26.658 34.792-52.488 42.363-25.83 48.579 0 22.748 42.385 34.796 52.491 17.155 26.055 8.702 39.315c-8.453 13.259-26.055 17.155-39.314 8.701z" opacity="1" data-original="#c2e4a1" class=""></path><circle cx="201.57" cy="378.14" r="15" fill="#98ca91" opacity="1" data-original="#98ca91"></circle><path fill="#c38778" d="M238.741 259.831c.169-45.297-40.906-82.201-91.742-82.39-22.017-.082-42.251 6.74-58.133 18.176-16.365 15.269-19.16 32.518-19.219 48.529-.168 45.297 34.122 78.788 40.879 104.409 6.756 25.62 22.558 47.876 50.603 47.981 8.268.031 20.478-6.884 26.724-10.237 4.018-6.74 7.066-14.386 9.235-22.366 6.948-25.569 41.485-58.805 41.653-104.102z" opacity="1" data-original="#c38778"></path><path fill="#c2e4a1" d="M328.39 216.643c0-15.725-12.748-28.473-28.473-28.473s-28.473 12.748-28.473 28.473c-13.26-8.452-30.862-4.555-39.314 8.705s-3.343 29.208 8.705 39.314 28.576 26.658 34.792 52.488 42.363 25.83 48.579 0 22.748-42.385 34.796-52.491 17.155-26.055 8.701-39.315c-8.452-13.259-26.054-17.155-39.313-8.701z" opacity="1" data-original="#c2e4a1" class=""></path><circle cx="320.625" cy="281.267" r="15" fill="#98ca91" opacity="1" data-original="#98ca91"></circle><path fill="#b1705b" d="M115.525 343.555c-6.756-25.621-41.047-59.112-40.879-104.409.06-16.011 5.269-30.932 14.219-43.529-20.79 14.97-34.124 37.85-34.219 63.529-.168 45.297 34.122 78.788 40.879 104.409 6.756 25.62 22.558 47.876 50.603 47.981 19.292.072 32.868-10.382 41.724-25.237-6.247 3.353-13.456 5.268-21.724 5.237-28.045-.104-43.847-22.36-50.603-47.981z" opacity="1" data-original="#b1705b"></path><g fill="#ffc250"><circle cx="242.358" cy="170.857" r="15" fill="#ffc250" opacity="1" data-original="#ffc250" class=""></circle><circle cx="373.879" cy="177.929" r="15" fill="#ffc250" opacity="1" data-original="#ffc250" class=""></circle><circle cx="330.625" cy="271.267" r="15" fill="#ffc250" opacity="1" data-original="#ffc250" class=""></circle><circle cx="211.57" cy="368.14" r="15" fill="#ffc250" opacity="1" data-original="#ffc250" class=""></circle><circle cx="321.675" cy="345.513" r="15" fill="#ffc250" opacity="1" data-original="#ffc250" class=""></circle></g><path d="M256 512c-68.38 0-132.667-26.629-181.02-74.98C26.629 388.667 0 324.38 0 256S26.629 123.333 74.98 74.98C123.333 26.629 187.62 0 256 0c56.773 0 110.548 18.199 155.51 52.63a7.5 7.5 0 0 1-9.12 11.91C360.069 32.13 309.448 15 256 15c-64.374 0-124.894 25.068-170.413 70.587S15 191.626 15 256s25.068 124.894 70.587 170.413S191.626 497 256 497s124.894-25.068 170.413-70.587S497 320.374 497 256c0-33.418-6.708-65.766-19.939-96.144-12.782-29.348-31.028-55.517-54.231-77.779-2.989-2.868-3.087-7.615-.219-10.604s7.616-3.087 10.604-.219c24.641 23.643 44.02 51.438 57.599 82.613C504.872 186.146 512 220.508 512 256c0 68.38-26.629 132.667-74.98 181.02C388.667 485.371 324.38 512 256 512zm-40.044-45.832c-16.103 0-29.769-10.636-34.341-25.251-5.555 1.516-11.432 1.671-17.213.391-9.381-2.077-17.392-7.683-22.557-15.786a34.599 34.599 0 0 1-3.447-7.032c-23.977-3.378-42.021-22.291-50.125-53.022a7.5 7.5 0 0 1 5.34-9.164 7.5 7.5 0 0 1 9.164 5.34c9.699 36.781 31.341 42.348 43.379 42.393h.147c12.065 0 33.611-5.51 43.547-42.07 2.747-10.108 8.865-20.42 15.95-32.362 10.995-18.531 23.408-39.454 25.217-64.029-10.107-11.298-13.19-25.828-8.185-38.452-14.049-25.604-43.461-42.061-75.861-42.182l-.368-.001c-22.605 0-43.833 7.774-59.811 21.913-15.82 13.998-24.573 32.579-24.646 52.321-.101 27.088 13.192 49.878 24.92 69.985 1.029 1.764 2.041 3.5 3.026 5.207a7.5 7.5 0 0 1-12.994 7.496c-.973-1.688-1.974-3.402-2.99-5.146-12.064-20.684-27.079-46.425-26.963-77.599.089-24.077 10.639-46.628 29.706-63.499 6.584-5.826 13.913-10.729 21.792-14.639-5.875-30.245 11.729-60.288 40.854-70.018a61.35 61.35 0 0 1 14.089-24.893 7.501 7.501 0 0 1 10.968 10.233 46.417 46.417 0 0 0-11.478 22.175 7.5 7.5 0 0 1-5.495 5.734c-23.004 5.843-37.639 28.001-34.687 50.974 10.673-3.449 22.042-5.246 33.708-5.246l.423.001c35.192.131 67.495 17.02 85.232 43.805 9.057-8.033 21.662-10.969 33.313-7.812 4.569-14.622 18.238-25.264 34.346-25.264 16.103 0 29.769 10.635 34.341 25.25 5.554-1.516 11.429-1.671 17.211-.393 9.381 2.077 17.393 7.682 22.559 15.784a34.98 34.98 0 0 1 1.635 2.852 145.693 145.693 0 0 0 4.582-5.214c13.356-15.923 33.543-20.122 49.091-10.209.475.302.94.614 1.397.936 7.674-24.384-.895-47.997-22.335-58.483a7.5 7.5 0 0 1-4.205-6.737c0-25.644-20.863-46.507-46.507-46.507a7.498 7.498 0 0 1-6.737-4.205c-11.267-23.036-39.174-32.612-62.211-21.345a7.495 7.495 0 0 1-7.899-.817c-20.243-15.745-49.521-12.083-65.263 8.158a7.497 7.497 0 0 1-7.456 2.737 46.463 46.463 0 0 0-23.944 1.299 7.5 7.5 0 0 1-4.667-14.255 61.418 61.418 0 0 1 27.167-2.496c20.354-22.528 54.384-26.784 79.657-9.959 28.184-11.293 60.62-.165 75.93 26.052 30.276 2.236 54.524 26.488 56.763 56.763 13.038 7.614 22.497 19.583 26.858 34.125 4.554 15.185 3.138 32.265-3.957 48.46a36.18 36.18 0 0 1 3.196 8.833c1.28 5.782 1.126 11.658-.391 17.213 14.615 4.573 25.251 18.238 25.251 34.341s-10.635 29.769-25.25 34.341c1.517 5.554 1.672 11.43.392 17.212-2.077 9.381-7.682 17.393-15.784 22.559-7.997 5.098-17.219 6.464-26.108 4.424a36.138 36.138 0 0 1-16.364 20.163c7.112 13.571 4.973 30.765-6.418 42.156-11.388 11.388-28.57 13.529-42.139 6.428-2.855 5-6.9 9.264-11.895 12.447-8.103 5.164-17.732 6.864-27.113 4.788-7.675-1.7-14.193-5.744-18.998-11.672-8.677 6.032-19.712 7.997-30.006 5.207-4.567 14.621-18.236 25.263-34.343 25.263zm113.77-141.674c8.448 3.24 14.443 11.431 14.443 21.019 0 12.426-10.074 22.5-22.5 22.5s-22.5-10.074-22.5-22.5c0-8.382 4.582-15.694 11.379-19.566 2.885-1.862 5.194-5.682 6.366-10.552a92.786 92.786 0 0 1 8.48-22.246c-9.902-2.359-17.267-11.26-17.267-21.884 0-12.426 10.074-22.5 22.5-22.5 8.994 0 16.757 5.277 20.358 12.904a154.766 154.766 0 0 1 3.197-2.755c8.441-7.081 13.94-18.96 7.197-29.537a20.837 20.837 0 0 0-13.151-9.202 20.82 20.82 0 0 0-15.807 2.793 7.502 7.502 0 0 1-11.532-6.324c0-11.564-9.408-20.973-20.973-20.973s-20.973 9.408-20.973 20.973a7.501 7.501 0 0 1-11.532 6.324c-9.751-6.216-22.743-3.34-28.958 6.412-6.742 10.576-1.241 22.455 7.201 29.536 19.958 16.741 32.146 35.216 37.264 56.479.908 3.775 2.672 6.875 5.243 9.215a7.5 7.5 0 0 1-10.097 11.093c-4.764-4.336-8.128-10.145-9.73-16.798-4.407-18.314-14.428-31.48-23.863-40.831-2.059 10.88-5.737 21.002-10.065 30.375 6.506 4.457 11.151 11.262 13.13 19.485 2.731 11.351 8.013 22.021 15.697 31.712a7.5 7.5 0 0 1-11.754 9.32c-9.048-11.413-15.282-24.037-18.527-37.522-.928-3.859-2.809-7.064-5.458-9.402-2.945 5.358-5.955 10.431-8.794 15.217a724.348 724.348 0 0 0-4.983 8.482c5.199.489 10.023 2.75 13.762 6.49 8.773 8.772 8.773 23.047 0 31.82-8.344 8.343-21.664 8.752-30.494 1.224-9.515 18.714-24.048 30.262-41.886 33.084 3.014 4.239 7.43 7.171 12.545 8.304a20.843 20.843 0 0 0 15.808-2.792 7.492 7.492 0 0 1 7.638-.252 7.499 7.499 0 0 1 3.894 6.576c0 11.564 9.408 20.973 20.973 20.973 11.564 0 20.972-9.408 20.972-20.973a7.501 7.501 0 0 1 11.532-6.324c9.751 6.218 22.743 3.342 28.959-6.409 6.744-10.577 1.245-22.457-7.197-29.537a7.5 7.5 0 0 1-.926-10.566 7.5 7.5 0 0 1 10.566-.926c15.576 13.065 19.931 32.666 10.834 48.069 2.25 3.453 5.921 6.909 11.852 8.222 5.468 1.212 11.083.22 15.807-2.791s7.992-7.682 9.203-13.151a7.499 7.499 0 0 1 12.626-3.682c8.177 8.177 21.482 8.177 29.66 0 8.177-8.177 8.177-21.483 0-29.66a7.498 7.498 0 0 1 3.683-12.626c7.944-1.758 14.053-7.937 15.882-15.634-3.282-2.281-6.37-5.096-9.16-8.422-6.004-7.157-15.595-17.541-29.5-25.042a7.5 7.5 0 1 1 7.121-13.202c16.17 8.723 27.075 20.502 33.871 28.604 7.081 8.442 18.958 13.941 29.537 7.198 9.751-6.217 12.626-19.208 6.409-28.959a7.5 7.5 0 0 1 6.324-11.532c11.564 0 20.973-9.408 20.973-20.973 0-11.564-9.408-20.972-20.973-20.972a7.501 7.501 0 0 1-6.325-11.532 20.841 20.841 0 0 0 2.792-15.807 20.83 20.83 0 0 0-9.204-13.151c-10.576-6.743-22.455-1.242-29.537 7.2-4.169 4.97-8.263 9.3-12.45 13.164-.677 10.359-5.998 20.712-15.464 28.652-11.108 9.318-26.544 24.483-32.324 48.5a40.663 40.663 0 0 1-1.774 5.588zm-8.057 13.519a7.5 7.5 0 1 0 0 15 7.5 7.5 0 0 0 0-15zM211.57 360.641a7.5 7.5 0 1 0 0 15 7.5 7.5 0 0 0 0-15zm119.058-96.876a7.5 7.5 0 1 0 0 15 7.5 7.5 0 0 0 0-15zm65.751-85.836c0 12.426-10.074 22.5-22.5 22.5s-22.5-10.074-22.5-22.5 10.074-22.5 22.5-22.5c12.427 0 22.5 10.073 22.5 22.5zm-22.5-7.5a7.5 7.5 0 1 0 0 15 7.5 7.5 0 0 0 0-15zm-109.021.428c0 12.426-10.074 22.5-22.5 22.5s-22.5-10.074-22.5-22.5 10.074-22.5 22.5-22.5 22.5 10.074 22.5 22.5zm-22.5-7.5a7.5 7.5 0 1 0 0 15 7.5 7.5 0 0 0 0-15zm-69.589 183.374h-47.022a7.5 7.5 0 0 1 0-15h47.022a7.5 7.5 0 0 1 0 15zm25.304-54.404H95.474a7.5 7.5 0 0 1 0-15h102.599a7.5 7.5 0 0 1 0 15zm-8.349-51.848h-86.999a7.5 7.5 0 0 1 0-15h86.999a7.5 7.5 0 0 1 0 15z" fill="#000000" opacity="1" data-original="#000000" class=""></path></g></svg>