<svg width="346" height="241" viewBox="0 0 346 241" fill="none" xmlns="http://www.w3.org/2000/svg">
<path d="M343.673 115.492C295.033 70.8229 242.159 32.0947 184.034 0.652625C180.916 -1.02122 176.879 0.71826 175.566 3.67211C175.369 3.77057 175.172 3.83622 174.975 4.00032C167.624 10.1049 161.421 18.507 153.281 23.5285C150.951 24.9726 150.655 27.6967 151.771 29.9613C154.824 36.1972 158.237 43.5819 162.339 50.1788C122.561 42.7613 81.4369 40.8906 41.7897 33.4403C38.0482 32.7511 35.3241 34.8188 34.1754 37.5101C-1.69744 45.9121 0.0748681 92.0906 0.0748681 122.417C0.0748681 145.555 -1.23795 173.912 7.13128 195.771C12.7436 210.441 38.3108 218.45 51.8328 221.863C53.08 222.191 54.1959 221.929 55.1477 221.371C55.3446 221.338 55.5415 221.338 55.7385 221.272C91.1518 210.474 126.467 199.315 161.782 188.156C156.497 200.3 153.937 215.069 152.657 227.081C152.461 228.854 153.872 230.429 155.217 231.315C163.094 236.435 172.678 242.113 182.294 240.21C182.688 240.144 183.016 239.914 183.246 239.652C185.215 241.03 187.972 241.391 190.04 240.078C244.785 204.96 295.164 165.313 343.804 122.22C345.741 120.513 345.445 117.133 343.673 115.492ZM11.3979 91.6967C18.0277 85.5921 24.6246 80.0126 33.0923 75.8444C36.1774 74.3347 33.8143 69.4116 30.6636 70.4619C24.7887 72.3654 18.7826 75.2865 13.5641 79.1593C17.0102 65.4403 24.1979 53.6906 38.5077 46.5685H38.5405C40.0174 46.8967 41.4943 47.1921 42.9713 47.5203C42.0523 61.5675 41.7241 75.6147 41.7241 89.6619C36.5385 93.2393 31.3856 96.7511 26.4626 100.69C21.2769 104.792 15.1067 108.599 10.7744 113.686C10.5774 106.269 10.6431 98.8516 11.3979 91.6967ZM11.2338 116.345C17.8964 114.244 23.7056 109.354 29.4164 105.416C33.8144 102.396 37.8513 98.9829 41.8226 95.4383C41.8882 101.609 42.0851 107.746 42.282 113.916C31.5497 121.596 21.8349 130.687 12.0215 139.516V139.319C11.6933 131.967 11.1682 124.156 10.8728 116.312C10.9713 116.345 11.0697 116.411 11.2338 116.345ZM12.0544 146.934C12.2185 146.868 12.3826 146.835 12.5467 146.704C22.5569 138.794 32.9938 131.114 42.479 122.482C42.7744 130.622 43.1682 138.761 43.6277 146.868C43.1682 146.737 42.6431 146.802 42.0523 147.098C30.9918 153.366 21.9005 161.67 13.4985 171.188C11.5292 173.42 14.7785 176.571 16.879 174.372C25.1169 165.74 34.4379 158.158 43.8574 150.839C44.2841 158.618 44.7764 166.396 45.3015 174.175H45.2687C36.3415 179.524 26.7251 185.596 18.9138 192.817C11.4636 184.612 11.9559 161.276 12.0544 146.934ZM24.001 196.886C31.6482 192.62 38.9344 187.172 45.6954 181.658C46.319 191.077 46.9426 200.497 47.5333 209.883C39.361 206.142 31.4841 202.105 24.001 196.886ZM190.401 42.6629C192.797 48.0454 195.258 53.3952 197.786 58.7121C190.904 56.6433 183.953 54.8152 176.945 53.2311C176.813 52.8372 176.616 52.4762 176.485 52.0824C180.949 49.4239 185.248 46.6014 189.548 43.5819C189.942 43.3193 190.204 42.9911 190.401 42.6629ZM182.229 24.8413C182.327 24.7101 182.393 24.5788 182.458 24.4475C184.493 29.2721 186.594 34.0967 188.727 38.8885C188.069 38.7125 187.369 38.7825 186.758 39.0854C182.262 41.2188 177.929 43.4834 173.63 45.8793C171.792 42.4003 169.658 38.987 167.427 35.7049C173.17 33.6701 178.159 29.1736 182.229 24.8413ZM161.453 27.4013C165.753 21.3952 171.726 16.3408 176.781 10.8598C178.29 14.667 179.931 18.4085 181.539 22.1829C181.146 22.0188 180.686 22.0516 180.227 22.3798C175.468 25.9244 170.085 29.1736 165.72 33.2762C164.276 31.2413 162.832 29.2721 161.453 27.4013ZM189.613 205.912C189.27 205.817 188.909 205.806 188.56 205.88C188.211 205.954 187.886 206.112 187.611 206.339C181.892 211.029 175.699 215.11 169.133 218.515C166.015 220.123 168.871 224.653 171.989 223.11C178.061 220.123 183.246 216.48 187.939 211.82C185.937 219.106 183.706 226.326 181.047 233.514C180.883 233.974 180.85 234.4 180.817 234.827C175.402 231.02 169.002 228.69 163.357 224.981C165.031 219.336 166.442 213.592 167.952 207.914C171.168 204.173 174.713 200.891 178.75 198.035C182.754 195.213 188.235 193.9 191.648 190.486C192.863 189.272 191.779 187.5 190.27 187.401C185.347 187.139 180.03 191.176 176.157 193.834C174.253 195.147 172.481 196.591 170.774 198.134C172.218 193.473 173.695 188.911 174.549 184.152C181.408 181.986 188.268 179.82 195.16 177.654C193.814 187.204 191.976 196.591 189.613 205.912ZM198.048 220.55C203.022 204.19 206.45 187.4 208.288 170.4C208.78 166.035 205.498 161.604 200.641 163.147C153.379 177.916 106.019 192.456 58.8892 207.586C51.0451 155.139 51.4718 102.101 51.0123 49.227C102.967 59.3029 156.432 58.2198 207.468 74.0721C212.719 75.7131 215.903 69.5757 213.769 65.4075C206.056 50.3757 199.197 34.9829 192.83 19.3603C242.75 47.9142 289.913 80.8988 333.137 118.971C290.832 156.058 245.178 189.732 198.048 220.55Z" fill="white"/>
</svg>
